{
  "asset": {
    "version": "2.0",
    "generator": "DarkEngine6 human"
  },
  "scene": 0,
  "scenes": [
    {
      "nodes": [
        0,
        17
      ]
    }
  ],
  "nodes": [
    {
      "name": "Hips",
      "translation": [
        0.0,
        0.0,
        0.0
      ],
      "children": [
        1,
        11,
        14
      ]
    },
    {
      "name": "Spine",
      "translation": [
        0.0,
        0.18,
        0.0
      ],
      "children": [
        2
      ]
    },
    {
      "name": "Chest",
      "translation": [
        0.0,
        0.18,
        0.0
      ],
      "children": [
        3,
        5,
        8
      ]
    },
    {
      "name": "Neck",
      "translation": [
        0.0,
        0.16,
        0.0
      ],
      "children": [
        4
      ]
    },
    {
      "name": "Head",
      "translation": [
        0.0,
        0.14,
        0.0
      ]
    },
    {
      "name": "L_UpperArm",
      "translation": [
        0.16,
        0.14,
        0.0
      ],
      "children": [
        6
      ]
    },
    {
      "name": "L_LowerArm",
      "translation": [
        0.26,
        0.0,
        0.0
      ],
      "children": [
        7
      ]
    },
    {
      "name": "L_Hand",
      "translation": [
        0.22,
        0.0,
        0.0
      ]
    },
    {
      "name": "R_UpperArm",
      "translation": [
        -0.16,
        0.14,
        0.0
      ],
      "children": [
        9
      ]
    },
    {
      "name": "R_LowerArm",
      "translation": [
        -0.26,
        0.0,
        0.0
      ],
      "children": [
        10
      ]
    },
    {
      "name": "R_Hand",
      "translation": [
        -0.22,
        0.0,
        0.0
      ]
    },
    {
      "name": "L_UpperLeg",
      "translation": [
        0.09,
        -0.02,
        0.0
      ],
      "children": [
        12
      ]
    },
    {
      "name": "L_LowerLeg",
      "translation": [
        0.0,
        -0.24,
        0.0
      ],
      "children": [
        13
      ]
    },
    {
      "name": "L_Foot",
      "translation": [
        0.0,
        -0.22,
        0.04
      ]
    },
    {
      "name": "R_UpperLeg",
      "translation": [
        -0.09,
        -0.02,
        0.0
      ],
      "children": [
        15
      ]
    },
    {
      "name": "R_LowerLeg",
      "translation": [
        0.0,
        -0.24,
        0.0
      ],
      "children": [
        16
      ]
    },
    {
      "name": "R_Foot",
      "translation": [
        0.0,
        -0.22,
        0.04
      ]
    },
    {
      "name": "Mesh",
      "mesh": 0,
      "skin": 0
    }
  ],
  "skins": [
    {
      "joints": [
        0,
        1,
        2,
        3,
        4,
        5,
        6,
        7,
        8,
        9,
        10,
        11,
        12,
        13,
        14,
        15,
        16
      ],
      "inverseBindMatrices": 5,
      "skeleton": 0
    }
  ],
  "meshes": [
    {
      "primitives": [
        {
          "attributes": {
            "POSITION": 0,
            "NORMAL": 1,
            "JOINTS_0": 2,
            "WEIGHTS_0": 3
          },
          "indices": 4,
          "material": 0
        }
      ]
    }
  ],
  "materials": [
    {
      "pbrMetallicRoughness": {
        "baseColorFactor": [
          0.72,
          0.52,
          0.38,
          1.0
        ],
        "metallicFactor": 0.0,
        "roughnessFactor": 0.55
      }
    }
  ],
  "animations": [
    {
      "name": "Idle",
      "samplers": [
        {
          "input": 6,
          "output": 7,
          "interpolation": "LINEAR"
        },
        {
          "input": 6,
          "output": 8,
          "interpolation": "LINEAR"
        },
        {
          "input": 6,
          "output": 9,
          "interpolation": "LINEAR"
        }
      ],
      "channels": [
        {
          "sampler": 0,
          "target": {
            "node": 1,
            "path": "rotation"
          }
        },
        {
          "sampler": 1,
          "target": {
            "node": 5,
            "path": "rotation"
          }
        },
        {
          "sampler": 2,
          "target": {
            "node": 8,
            "path": "rotation"
          }
        }
      ]
    },
    {
      "name": "Walk",
      "samplers": [
        {
          "input": 10,
          "output": 11,
          "interpolation": "LINEAR"
        },
        {
          "input": 10,
          "output": 12,
          "interpolation": "LINEAR"
        },
        {
          "input": 10,
          "output": 13,
          "interpolation": "LINEAR"
        },
        {
          "input": 10,
          "output": 14,
          "interpolation": "LINEAR"
        },
        {
          "input": 10,
          "output": 15,
          "interpolation": "LINEAR"
        },
        {
          "input": 10,
          "output": 16,
          "interpolation": "LINEAR"
        },
        {
          "input": 10,
          "output": 17,
          "interpolation": "LINEAR"
        }
      ],
      "channels": [
        {
          "sampler": 0,
          "target": {
            "node": 11,
            "path": "rotation"
          }
        },
        {
          "sampler": 1,
          "target": {
            "node": 14,
            "path": "rotation"
          }
        },
        {
          "sampler": 2,
          "target": {
            "node": 12,
            "path": "rotation"
          }
        },
        {
          "sampler": 3,
          "target": {
            "node": 15,
            "path": "rotation"
          }
        },
        {
          "sampler": 4,
          "target": {
            "node": 5,
            "path": "rotation"
          }
        },
        {
          "sampler": 5,
          "target": {
            "node": 8,
            "path": "rotation"
          }
        },
        {
          "sampler": 6,
          "target": {
            "node": 1,
            "path": "rotation"
          }
        }
      ]
    },
    {
      "name": "WalkBack",
      "samplers": [
        {
          "input": 18,
          "output": 19,
          "interpolation": "LINEAR"
        },
        {
          "input": 18,
          "output": 20,
          "interpolation": "LINEAR"
        },
        {
          "input": 18,
          "output": 21,
          "interpolation": "LINEAR"
        },
        {
          "input": 18,
          "output": 22,
          "interpolation": "LINEAR"
        },
        {
          "input": 18,
          "output": 23,
          "interpolation": "LINEAR"
        },
        {
          "input": 18,
          "output": 24,
          "interpolation": "LINEAR"
        },
        {
          "input": 18,
          "output": 25,
          "interpolation": "LINEAR"
        }
      ],
      "channels": [
        {
          "sampler": 0,
          "target": {
            "node": 11,
            "path": "rotation"
          }
        },
        {
          "sampler": 1,
          "target": {
            "node": 14,
            "path": "rotation"
          }
        },
        {
          "sampler": 2,
          "target": {
            "node": 12,
            "path": "rotation"
          }
        },
        {
          "sampler": 3,
          "target": {
            "node": 15,
            "path": "rotation"
          }
        },
        {
          "sampler": 4,
          "target": {
            "node": 5,
            "path": "rotation"
          }
        },
        {
          "sampler": 5,
          "target": {
            "node": 8,
            "path": "rotation"
          }
        },
        {
          "sampler": 6,
          "target": {
            "node": 1,
            "path": "rotation"
          }
        }
      ]
    },
    {
      "name": "Run",
      "samplers": [
        {
          "input": 26,
          "output": 27,
          "interpolation": "LINEAR"
        },
        {
          "input": 26,
          "output": 28,
          "interpolation": "LINEAR"
        },
        {
          "input": 26,
          "output": 29,
          "interpolation": "LINEAR"
        },
        {
          "input": 26,
          "output": 30,
          "interpolation": "LINEAR"
        },
        {
          "input": 26,
          "output": 31,
          "interpolation": "LINEAR"
        },
        {
          "input": 26,
          "output": 32,
          "interpolation": "LINEAR"
        },
        {
          "input": 26,
          "output": 33,
          "interpolation": "LINEAR"
        },
        {
          "input": 26,
          "output": 34,
          "interpolation": "LINEAR"
        }
      ],
      "channels": [
        {
          "sampler": 0,
          "target": {
            "node": 11,
            "path": "rotation"
          }
        },
        {
          "sampler": 1,
          "target": {
            "node": 14,
            "path": "rotation"
          }
        },
        {
          "sampler": 2,
          "target": {
            "node": 12,
            "path": "rotation"
          }
        },
        {
          "sampler": 3,
          "target": {
            "node": 15,
            "path": "rotation"
          }
        },
        {
          "sampler": 4,
          "target": {
            "node": 5,
            "path": "rotation"
          }
        },
        {
          "sampler": 5,
          "target": {
            "node": 8,
            "path": "rotation"
          }
        },
        {
          "sampler": 6,
          "target": {
            "node": 1,
            "path": "rotation"
          }
        },
        {
          "sampler": 7,
          "target": {
            "node": 2,
            "path": "rotation"
          }
        }
      ]
    },
    {
      "name": "RunBack",
      "samplers": [
        {
          "input": 35,
          "output": 36,
          "interpolation": "LINEAR"
        },
        {
          "input": 35,
          "output": 37,
          "interpolation": "LINEAR"
        },
        {
          "input": 35,
          "output": 38,
          "interpolation": "LINEAR"
        },
        {
          "input": 35,
          "output": 39,
          "interpolation": "LINEAR"
        },
        {
          "input": 35,
          "output": 40,
          "interpolation": "LINEAR"
        },
        {
          "input": 35,
          "output": 41,
          "interpolation": "LINEAR"
        },
        {
          "input": 35,
          "output": 42,
          "interpolation": "LINEAR"
        },
        {
          "input": 35,
          "output": 43,
          "interpolation": "LINEAR"
        }
      ],
      "channels": [
        {
          "sampler": 0,
          "target": {
            "node": 11,
            "path": "rotation"
          }
        },
        {
          "sampler": 1,
          "target": {
            "node": 14,
            "path": "rotation"
          }
        },
        {
          "sampler": 2,
          "target": {
            "node": 12,
            "path": "rotation"
          }
        },
        {
          "sampler": 3,
          "target": {
            "node": 15,
            "path": "rotation"
          }
        },
        {
          "sampler": 4,
          "target": {
            "node": 5,
            "path": "rotation"
          }
        },
        {
          "sampler": 5,
          "target": {
            "node": 8,
            "path": "rotation"
          }
        },
        {
          "sampler": 6,
          "target": {
            "node": 1,
            "path": "rotation"
          }
        },
        {
          "sampler": 7,
          "target": {
            "node": 2,
            "path": "rotation"
          }
        }
      ]
    },
    {
      "name": "StrafeLeft",
      "samplers": [
        {
          "input": 44,
          "output": 45,
          "interpolation": "LINEAR"
        },
        {
          "input": 44,
          "output": 46,
          "interpolation": "LINEAR"
        },
        {
          "input": 44,
          "output": 47,
          "interpolation": "LINEAR"
        },
        {
          "input": 44,
          "output": 48,
          "interpolation": "LINEAR"
        },
        {
          "input": 44,
          "output": 49,
          "interpolation": "LINEAR"
        },
        {
          "input": 44,
          "output": 50,
          "interpolation": "LINEAR"
        },
        {
          "input": 44,
          "output": 51,
          "interpolation": "LINEAR"
        },
        {
          "input": 44,
          "output": 52,
          "interpolation": "LINEAR"
        },
        {
          "input": 44,
          "output": 53,
          "interpolation": "LINEAR"
        },
        {
          "input": 44,
          "output": 54,
          "interpolation": "LINEAR"
        },
        {
          "input": 44,
          "output": 55,
          "interpolation": "LINEAR"
        },
        {
          "input": 44,
          "output": 56,
          "interpolation": "LINEAR"
        }
      ],
      "channels": [
        {
          "sampler": 0,
          "target": {
            "node": 0,
            "path": "rotation"
          }
        },
        {
          "sampler": 1,
          "target": {
            "node": 1,
            "path": "rotation"
          }
        },
        {
          "sampler": 2,
          "target": {
            "node": 14,
            "path": "rotation"
          }
        },
        {
          "sampler": 3,
          "target": {
            "node": 15,
            "path": "rotation"
          }
        },
        {
          "sampler": 4,
          "target": {
            "node": 16,
            "path": "rotation"
          }
        },
        {
          "sampler": 5,
          "target": {
            "node": 11,
            "path": "rotation"
          }
        },
        {
          "sampler": 6,
          "target": {
            "node": 12,
            "path": "rotation"
          }
        },
        {
          "sampler": 7,
          "target": {
            "node": 13,
            "path": "rotation"
          }
        },
        {
          "sampler": 8,
          "target": {
            "node": 8,
            "path": "rotation"
          }
        },
        {
          "sampler": 9,
          "target": {
            "node": 5,
            "path": "rotation"
          }
        },
        {
          "sampler": 10,
          "target": {
            "node": 9,
            "path": "rotation"
          }
        },
        {
          "sampler": 11,
          "target": {
            "node": 6,
            "path": "rotation"
          }
        }
      ]
    },
    {
      "name": "StrafeRight",
      "samplers": [
        {
          "input": 57,
          "output": 58,
          "interpolation": "LINEAR"
        },
        {
          "input": 57,
          "output": 59,
          "interpolation": "LINEAR"
        },
        {
          "input": 57,
          "output": 60,
          "interpolation": "LINEAR"
        },
        {
          "input": 57,
          "output": 61,
          "interpolation": "LINEAR"
        },
        {
          "input": 57,
          "output": 62,
          "interpolation": "LINEAR"
        },
        {
          "input": 57,
          "output": 63,
          "interpolation": "LINEAR"
        },
        {
          "input": 57,
          "output": 64,
          "interpolation": "LINEAR"
        },
        {
          "input": 57,
          "output": 65,
          "interpolation": "LINEAR"
        },
        {
          "input": 57,
          "output": 66,
          "interpolation": "LINEAR"
        },
        {
          "input": 57,
          "output": 67,
          "interpolation": "LINEAR"
        },
        {
          "input": 57,
          "output": 68,
          "interpolation": "LINEAR"
        },
        {
          "input": 57,
          "output": 69,
          "interpolation": "LINEAR"
        }
      ],
      "channels": [
        {
          "sampler": 0,
          "target": {
            "node": 0,
            "path": "rotation"
          }
        },
        {
          "sampler": 1,
          "target": {
            "node": 1,
            "path": "rotation"
          }
        },
        {
          "sampler": 2,
          "target": {
            "node": 11,
            "path": "rotation"
          }
        },
        {
          "sampler": 3,
          "target": {
            "node": 12,
            "path": "rotation"
          }
        },
        {
          "sampler": 4,
          "target": {
            "node": 13,
            "path": "rotation"
          }
        },
        {
          "sampler": 5,
          "target": {
            "node": 14,
            "path": "rotation"
          }
        },
        {
          "sampler": 6,
          "target": {
            "node": 15,
            "path": "rotation"
          }
        },
        {
          "sampler": 7,
          "target": {
            "node": 16,
            "path": "rotation"
          }
        },
        {
          "sampler": 8,
          "target": {
            "node": 5,
            "path": "rotation"
          }
        },
        {
          "sampler": 9,
          "target": {
            "node": 8,
            "path": "rotation"
          }
        },
        {
          "sampler": 10,
          "target": {
            "node": 6,
            "path": "rotation"
          }
        },
        {
          "sampler": 11,
          "target": {
            "node": 9,
            "path": "rotation"
          }
        }
      ]
    },
    {
      "name": "StrafeRunLeft",
      "samplers": [
        {
          "input": 70,
          "output": 71,
          "interpolation": "LINEAR"
        },
        {
          "input": 70,
          "output": 72,
          "interpolation": "LINEAR"
        },
        {
          "input": 70,
          "output": 73,
          "interpolation": "LINEAR"
        },
        {
          "input": 70,
          "output": 74,
          "interpolation": "LINEAR"
        },
        {
          "input": 70,
          "output": 75,
          "interpolation": "LINEAR"
        },
        {
          "input": 70,
          "output": 76,
          "interpolation": "LINEAR"
        },
        {
          "input": 70,
          "output": 77,
          "interpolation": "LINEAR"
        },
        {
          "input": 70,
          "output": 78,
          "interpolation": "LINEAR"
        },
        {
          "input": 70,
          "output": 79,
          "interpolation": "LINEAR"
        },
        {
          "input": 70,
          "output": 80,
          "interpolation": "LINEAR"
        },
        {
          "input": 70,
          "output": 81,
          "interpolation": "LINEAR"
        },
        {
          "input": 70,
          "output": 82,
          "interpolation": "LINEAR"
        },
        {
          "input": 70,
          "output": 83,
          "interpolation": "LINEAR"
        }
      ],
      "channels": [
        {
          "sampler": 0,
          "target": {
            "node": 0,
            "path": "rotation"
          }
        },
        {
          "sampler": 1,
          "target": {
            "node": 1,
            "path": "rotation"
          }
        },
        {
          "sampler": 2,
          "target": {
            "node": 14,
            "path": "rotation"
          }
        },
        {
          "sampler": 3,
          "target": {
            "node": 15,
            "path": "rotation"
          }
        },
        {
          "sampler": 4,
          "target": {
            "node": 16,
            "path": "rotation"
          }
        },
        {
          "sampler": 5,
          "target": {
            "node": 11,
            "path": "rotation"
          }
        },
        {
          "sampler": 6,
          "target": {
            "node": 12,
            "path": "rotation"
          }
        },
        {
          "sampler": 7,
          "target": {
            "node": 13,
            "path": "rotation"
          }
        },
        {
          "sampler": 8,
          "target": {
            "node": 8,
            "path": "rotation"
          }
        },
        {
          "sampler": 9,
          "target": {
            "node": 5,
            "path": "rotation"
          }
        },
        {
          "sampler": 10,
          "target": {
            "node": 9,
            "path": "rotation"
          }
        },
        {
          "sampler": 11,
          "target": {
            "node": 6,
            "path": "rotation"
          }
        },
        {
          "sampler": 12,
          "target": {
            "node": 2,
            "path": "rotation"
          }
        }
      ]
    },
    {
      "name": "StrafeRunRight",
      "samplers": [
        {
          "input": 84,
          "output": 85,
          "interpolation": "LINEAR"
        },
        {
          "input": 84,
          "output": 86,
          "interpolation": "LINEAR"
        },
        {
          "input": 84,
          "output": 87,
          "interpolation": "LINEAR"
        },
        {
          "input": 84,
          "output": 88,
          "interpolation": "LINEAR"
        },
        {
          "input": 84,
          "output": 89,
          "interpolation": "LINEAR"
        },
        {
          "input": 84,
          "output": 90,
          "interpolation": "LINEAR"
        },
        {
          "input": 84,
          "output": 91,
          "interpolation": "LINEAR"
        },
        {
          "input": 84,
          "output": 92,
          "interpolation": "LINEAR"
        },
        {
          "input": 84,
          "output": 93,
          "interpolation": "LINEAR"
        },
        {
          "input": 84,
          "output": 94,
          "interpolation": "LINEAR"
        },
        {
          "input": 84,
          "output": 95,
          "interpolation": "LINEAR"
        },
        {
          "input": 84,
          "output": 96,
          "interpolation": "LINEAR"
        },
        {
          "input": 84,
          "output": 97,
          "interpolation": "LINEAR"
        }
      ],
      "channels": [
        {
          "sampler": 0,
          "target": {
            "node": 0,
            "path": "rotation"
          }
        },
        {
          "sampler": 1,
          "target": {
            "node": 1,
            "path": "rotation"
          }
        },
        {
          "sampler": 2,
          "target": {
            "node": 11,
            "path": "rotation"
          }
        },
        {
          "sampler": 3,
          "target": {
            "node": 12,
            "path": "rotation"
          }
        },
        {
          "sampler": 4,
          "target": {
            "node": 13,
            "path": "rotation"
          }
        },
        {
          "sampler": 5,
          "target": {
            "node": 14,
            "path": "rotation"
          }
        },
        {
          "sampler": 6,
          "target": {
            "node": 15,
            "path": "rotation"
          }
        },
        {
          "sampler": 7,
          "target": {
            "node": 16,
            "path": "rotation"
          }
        },
        {
          "sampler": 8,
          "target": {
            "node": 5,
            "path": "rotation"
          }
        },
        {
          "sampler": 9,
          "target": {
            "node": 8,
            "path": "rotation"
          }
        },
        {
          "sampler": 10,
          "target": {
            "node": 6,
            "path": "rotation"
          }
        },
        {
          "sampler": 11,
          "target": {
            "node": 9,
            "path": "rotation"
          }
        },
        {
          "sampler": 12,
          "target": {
            "node": 2,
            "path": "rotation"
          }
        }
      ]
    },
    {
      "name": "Shoot",
      "samplers": [
        {
          "input": 98,
          "output": 99,
          "interpolation": "LINEAR"
        },
        {
          "input": 98,
          "output": 100,
          "interpolation": "LINEAR"
        },
        {
          "input": 98,
          "output": 101,
          "interpolation": "LINEAR"
        },
        {
          "input": 98,
          "output": 102,
          "interpolation": "LINEAR"
        },
        {
          "input": 98,
          "output": 103,
          "interpolation": "LINEAR"
        }
      ],
      "channels": [
        {
          "sampler": 0,
          "target": {
            "node": 5,
            "path": "rotation"
          }
        },
        {
          "sampler": 1,
          "target": {
            "node": 8,
            "path": "rotation"
          }
        },
        {
          "sampler": 2,
          "target": {
            "node": 6,
            "path": "rotation"
          }
        },
        {
          "sampler": 3,
          "target": {
            "node": 9,
            "path": "rotation"
          }
        },
        {
          "sampler": 4,
          "target": {
            "node": 2,
            "path": "rotation"
          }
        }
      ]
    },
    {
      "name": "SwingSword",
      "samplers": [
        {
          "input": 104,
          "output": 105,
          "interpolation": "LINEAR"
        },
        {
          "input": 104,
          "output": 106,
          "interpolation": "LINEAR"
        },
        {
          "input": 104,
          "output": 107,
          "interpolation": "LINEAR"
        }
      ],
      "channels": [
        {
          "sampler": 0,
          "target": {
            "node": 8,
            "path": "rotation"
          }
        },
        {
          "sampler": 1,
          "target": {
            "node": 9,
            "path": "rotation"
          }
        },
        {
          "sampler": 2,
          "target": {
            "node": 2,
            "path": "rotation"
          }
        }
      ]
    }
  ],
  "accessors": [
    {
      "bufferView": 0,
      "componentType": 5126,
      "count": 408,
      "type": "VEC3",
      "min": [
        -0.7999999999999999,
        -0.56,
        -0.08
      ],
      "max": [
        0.7999999999999999,
        0.89,
        0.21000000000000002
      ]
    },
    {
      "bufferView": 1,
      "componentType": 5126,
      "count": 408,
      "type": "VEC3"
    },
    {
      "bufferView": 2,
      "componentType": 5121,
      "count": 408,
      "type": "VEC4"
    },
    {
      "bufferView": 3,
      "componentType": 5126,
      "count": 408,
      "type": "VEC4"
    },
    {
      "bufferView": 4,
      "componentType": 5123,
      "count": 612,
      "type": "SCALAR"
    },
    {
      "bufferView": 5,
      "componentType": 5126,
      "count": 17,
      "type": "MAT4"
    },
    {
      "bufferView": 6,
      "componentType": 5126,
      "count": 3,
      "type": "SCALAR",
      "min": [
        0.0
      ],
      "max": [
        2.0
      ]
    },
    {
      "bufferView": 7,
      "componentType": 5126,
      "count": 3,
      "type": "VEC4"
    },
    {
      "bufferView": 8,
      "componentType": 5126,
      "count": 3,
      "type": "VEC4"
    },
    {
      "bufferView": 9,
      "componentType": 5126,
      "count": 3,
      "type": "VEC4"
    },
    {
      "bufferView": 10,
      "componentType": 5126,
      "count": 5,
      "type": "SCALAR",
      "min": [
        0.0
      ],
      "max": [
        0.8
      ]
    },
    {
      "bufferView": 11,
      "componentType": 5126,
      "count": 5,
      "type": "VEC4"
    },
    {
      "bufferView": 12,
      "componentType": 5126,
      "count": 5,
      "type": "VEC4"
    },
    {
      "bufferView": 13,
      "componentType": 5126,
      "count": 5,
      "type": "VEC4"
    },
    {
      "bufferView": 14,
      "componentType": 5126,
      "count": 5,
      "type": "VEC4"
    },
    {
      "bufferView": 15,
      "componentType": 5126,
      "count": 5,
      "type": "VEC4"
    },
    {
      "bufferView": 16,
      "componentType": 5126,
      "count": 5,
      "type": "VEC4"
    },
    {
      "bufferView": 17,
      "componentType": 5126,
      "count": 5,
      "type": "VEC4"
    },
    {
      "bufferView": 18,
      "componentType": 5126,
      "count": 5,
      "type": "SCALAR",
      "min": [
        0.0
      ],
      "max": [
        0.8
      ]
    },
    {
      "bufferView": 19,
      "componentType": 5126,
      "count": 5,
      "type": "VEC4"
    },
    {
      "bufferView": 20,
      "componentType": 5126,
      "count": 5,
      "type": "VEC4"
    },
    {
      "bufferView": 21,
      "componentType": 5126,
      "count": 5,
      "type": "VEC4"
    },
    {
      "bufferView": 22,
      "componentType": 5126,
      "count": 5,
      "type": "VEC4"
    },
    {
      "bufferView": 23,
      "componentType": 5126,
      "count": 5,
      "type": "VEC4"
    },
    {
      "bufferView": 24,
      "componentType": 5126,
      "count": 5,
      "type": "VEC4"
    },
    {
      "bufferView": 25,
      "componentType": 5126,
      "count": 5,
      "type": "VEC4"
    },
    {
      "bufferView": 26,
      "componentType": 5126,
      "count": 5,
      "type": "SCALAR",
      "min": [
        0.0
      ],
      "max": [
        0.5
      ]
    },
    {
      "bufferView": 27,
      "componentType": 5126,
      "count": 5,
      "type": "VEC4"
    },
    {
      "bufferView": 28,
      "componentType": 5126,
      "count": 5,
      "type": "VEC4"
    },
    {
      "bufferView": 29,
      "componentType": 5126,
      "count": 5,
      "type": "VEC4"
    },
    {
      "bufferView": 30,
      "componentType": 5126,
      "count": 5,
      "type": "VEC4"
    },
    {
      "bufferView": 31,
      "componentType": 5126,
      "count": 5,
      "type": "VEC4"
    },
    {
      "bufferView": 32,
      "componentType": 5126,
      "count": 5,
      "type": "VEC4"
    },
    {
      "bufferView": 33,
      "componentType": 5126,
      "count": 5,
      "type": "VEC4"
    },
    {
      "bufferView": 34,
      "componentType": 5126,
      "count": 5,
      "type": "VEC4"
    },
    {
      "bufferView": 35,
      "componentType": 5126,
      "count": 5,
      "type": "SCALAR",
      "min": [
        0.0
      ],
      "max": [
        0.5
      ]
    },
    {
      "bufferView": 36,
      "componentType": 5126,
      "count": 5,
      "type": "VEC4"
    },
    {
      "bufferView": 37,
      "componentType": 5126,
      "count": 5,
      "type": "VEC4"
    },
    {
      "bufferView": 38,
      "componentType": 5126,
      "count": 5,
      "type": "VEC4"
    },
    {
      "bufferView": 39,
      "componentType": 5126,
      "count": 5,
      "type": "VEC4"
    },
    {
      "bufferView": 40,
      "componentType": 5126,
      "count": 5,
      "type": "VEC4"
    },
    {
      "bufferView": 41,
      "componentType": 5126,
      "count": 5,
      "type": "VEC4"
    },
    {
      "bufferView": 42,
      "componentType": 5126,
      "count": 5,
      "type": "VEC4"
    },
    {
      "bufferView": 43,
      "componentType": 5126,
      "count": 5,
      "type": "VEC4"
    },
    {
      "bufferView": 44,
      "componentType": 5126,
      "count": 5,
      "type": "SCALAR",
      "min": [
        0.0
      ],
      "max": [
        0.8
      ]
    },
    {
      "bufferView": 45,
      "componentType": 5126,
      "count": 5,
      "type": "VEC4"
    },
    {
      "bufferView": 46,
      "componentType": 5126,
      "count": 5,
      "type": "VEC4"
    },
    {
      "bufferView": 47,
      "componentType": 5126,
      "count": 5,
      "type": "VEC4"
    },
    {
      "bufferView": 48,
      "componentType": 5126,
      "count": 5,
      "type": "VEC4"
    },
    {
      "bufferView": 49,
      "componentType": 5126,
      "count": 5,
      "type": "VEC4"
    },
    {
      "bufferView": 50,
      "componentType": 5126,
      "count": 5,
      "type": "VEC4"
    },
    {
      "bufferView": 51,
      "componentType": 5126,
      "count": 5,
      "type": "VEC4"
    },
    {
      "bufferView": 52,
      "componentType": 5126,
      "count": 5,
      "type": "VEC4"
    },
    {
      "bufferView": 53,
      "componentType": 5126,
      "count": 5,
      "type": "VEC4"
    },
    {
      "bufferView": 54,
      "componentType": 5126,
      "count": 5,
      "type": "VEC4"
    },
    {
      "bufferView": 55,
      "componentType": 5126,
      "count": 5,
      "type": "VEC4"
    },
    {
      "bufferView": 56,
      "componentType": 5126,
      "count": 5,
      "type": "VEC4"
    },
    {
      "bufferView": 57,
      "componentType": 5126,
      "count": 5,
      "type": "SCALAR",
      "min": [
        0.0
      ],
      "max": [
        0.8
      ]
    },
    {
      "bufferView": 58,
      "componentType": 5126,
      "count": 5,
      "type": "VEC4"
    },
    {
      "bufferView": 59,
      "componentType": 5126,
      "count": 5,
      "type": "VEC4"
    },
    {
      "bufferView": 60,
      "componentType": 5126,
      "count": 5,
      "type": "VEC4"
    },
    {
      "bufferView": 61,
      "componentType": 5126,
      "count": 5,
      "type": "VEC4"
    },
    {
      "bufferView": 62,
      "componentType": 5126,
      "count": 5,
      "type": "VEC4"
    },
    {
      "bufferView": 63,
      "componentType": 5126,
      "count": 5,
      "type": "VEC4"
    },
    {
      "bufferView": 64,
      "componentType": 5126,
      "count": 5,
      "type": "VEC4"
    },
    {
      "bufferView": 65,
      "componentType": 5126,
      "count": 5,
      "type": "VEC4"
    },
    {
      "bufferView": 66,
      "componentType": 5126,
      "count": 5,
      "type": "VEC4"
    },
    {
      "bufferView": 67,
      "componentType": 5126,
      "count": 5,
      "type": "VEC4"
    },
    {
      "bufferView": 68,
      "componentType": 5126,
      "count": 5,
      "type": "VEC4"
    },
    {
      "bufferView": 69,
      "componentType": 5126,
      "count": 5,
      "type": "VEC4"
    },
    {
      "bufferView": 70,
      "componentType": 5126,
      "count": 5,
      "type": "SCALAR",
      "min": [
        0.0
      ],
      "max": [
        0.5
      ]
    },
    {
      "bufferView": 71,
      "componentType": 5126,
      "count": 5,
      "type": "VEC4"
    },
    {
      "bufferView": 72,
      "componentType": 5126,
      "count": 5,
      "type": "VEC4"
    },
    {
      "bufferView": 73,
      "componentType": 5126,
      "count": 5,
      "type": "VEC4"
    },
    {
      "bufferView": 74,
      "componentType": 5126,
      "count": 5,
      "type": "VEC4"
    },
    {
      "bufferView": 75,
      "componentType": 5126,
      "count": 5,
      "type": "VEC4"
    },
    {
      "bufferView": 76,
      "componentType": 5126,
      "count": 5,
      "type": "VEC4"
    },
    {
      "bufferView": 77,
      "componentType": 5126,
      "count": 5,
      "type": "VEC4"
    },
    {
      "bufferView": 78,
      "componentType": 5126,
      "count": 5,
      "type": "VEC4"
    },
    {
      "bufferView": 79,
      "componentType": 5126,
      "count": 5,
      "type": "VEC4"
    },
    {
      "bufferView": 80,
      "componentType": 5126,
      "count": 5,
      "type": "VEC4"
    },
    {
      "bufferView": 81,
      "componentType": 5126,
      "count": 5,
      "type": "VEC4"
    },
    {
      "bufferView": 82,
      "componentType": 5126,
      "count": 5,
      "type": "VEC4"
    },
    {
      "bufferView": 83,
      "componentType": 5126,
      "count": 5,
      "type": "VEC4"
    },
    {
      "bufferView": 84,
      "componentType": 5126,
      "count": 5,
      "type": "SCALAR",
      "min": [
        0.0
      ],
      "max": [
        0.5
      ]
    },
    {
      "bufferView": 85,
      "componentType": 5126,
      "count": 5,
      "type": "VEC4"
    },
    {
      "bufferView": 86,
      "componentType": 5126,
      "count": 5,
      "type": "VEC4"
    },
    {
      "bufferView": 87,
      "componentType": 5126,
      "count": 5,
      "type": "VEC4"
    },
    {
      "bufferView": 88,
      "componentType": 5126,
      "count": 5,
      "type": "VEC4"
    },
    {
      "bufferView": 89,
      "componentType": 5126,
      "count": 5,
      "type": "VEC4"
    },
    {
      "bufferView": 90,
      "componentType": 5126,
      "count": 5,
      "type": "VEC4"
    },
    {
      "bufferView": 91,
      "componentType": 5126,
      "count": 5,
      "type": "VEC4"
    },
    {
      "bufferView": 92,
      "componentType": 5126,
      "count": 5,
      "type": "VEC4"
    },
    {
      "bufferView": 93,
      "componentType": 5126,
      "count": 5,
      "type": "VEC4"
    },
    {
      "bufferView": 94,
      "componentType": 5126,
      "count": 5,
      "type": "VEC4"
    },
    {
      "bufferView": 95,
      "componentType": 5126,
      "count": 5,
      "type": "VEC4"
    },
    {
      "bufferView": 96,
      "componentType": 5126,
      "count": 5,
      "type": "VEC4"
    },
    {
      "bufferView": 97,
      "componentType": 5126,
      "count": 5,
      "type": "VEC4"
    },
    {
      "bufferView": 98,
      "componentType": 5126,
      "count": 4,
      "type": "SCALAR",
      "min": [
        0.0
      ],
      "max": [
        0.55
      ]
    },
    {
      "bufferView": 99,
      "componentType": 5126,
      "count": 4,
      "type": "VEC4"
    },
    {
      "bufferView": 100,
      "componentType": 5126,
      "count": 4,
      "type": "VEC4"
    },
    {
      "bufferView": 101,
      "componentType": 5126,
      "count": 4,
      "type": "VEC4"
    },
    {
      "bufferView": 102,
      "componentType": 5126,
      "count": 4,
      "type": "VEC4"
    },
    {
      "bufferView": 103,
      "componentType": 5126,
      "count": 4,
      "type": "VEC4"
    },
    {
      "bufferView": 104,
      "componentType": 5126,
      "count": 4,
      "type": "SCALAR",
      "min": [
        0.0
      ],
      "max": [
        0.5
      ]
    },
    {
      "bufferView": 105,
      "componentType": 5126,
      "count": 4,
      "type": "VEC4"
    },
    {
      "bufferView": 106,
      "componentType": 5126,
      "count": 4,
      "type": "VEC4"
    },
    {
      "bufferView": 107,
      "componentType": 5126,
      "count": 4,
      "type": "VEC4"
    }
  ],
  "bufferViews": [
    {
      "buffer": 0,
      "byteOffset": 0,
      "byteLength": 4896,
      "target": 34962
    },
    {
      "buffer": 0,
      "byteOffset": 4896,
      "byteLength": 4896,
      "target": 34962
    },
    {
      "buffer": 0,
      "byteOffset": 9792,
      "byteLength": 1632,
      "target": 34962
    },
    {
      "buffer": 0,
      "byteOffset": 11424,
      "byteLength": 6528,
      "target": 34962
    },
    {
      "buffer": 0,
      "byteOffset": 17952,
      "byteLength": 1224,
      "target": 34963
    },
    {
      "buffer": 0,
      "byteOffset": 19176,
      "byteLength": 1088
    },
    {
      "buffer": 0,
      "byteOffset": 20264,
      "byteLength": 12
    },
    {
      "buffer": 0,
      "byteOffset": 20276,
      "byteLength": 48
    },
    {
      "buffer": 0,
      "byteOffset": 20324,
      "byteLength": 48
    },
    {
      "buffer": 0,
      "byteOffset": 20372,
      "byteLength": 48
    },
    {
      "buffer": 0,
      "byteOffset": 20420,
      "byteLength": 20
    },
    {
      "buffer": 0,
      "byteOffset": 20440,
      "byteLength": 80
    },
    {
      "buffer": 0,
      "byteOffset": 20520,
      "byteLength": 80
    },
    {
      "buffer": 0,
      "byteOffset": 20600,
      "byteLength": 80
    },
    {
      "buffer": 0,
      "byteOffset": 20680,
      "byteLength": 80
    },
    {
      "buffer": 0,
      "byteOffset": 20760,
      "byteLength": 80
    },
    {
      "buffer": 0,
      "byteOffset": 20840,
      "byteLength": 80
    },
    {
      "buffer": 0,
      "byteOffset": 20920,
      "byteLength": 80
    },
    {
      "buffer": 0,
      "byteOffset": 21000,
      "byteLength": 20
    },
    {
      "buffer": 0,
      "byteOffset": 21020,
      "byteLength": 80
    },
    {
      "buffer": 0,
      "byteOffset": 21100,
      "byteLength": 80
    },
    {
      "buffer": 0,
      "byteOffset": 21180,
      "byteLength": 80
    },
    {
      "buffer": 0,
      "byteOffset": 21260,
      "byteLength": 80
    },
    {
      "buffer": 0,
      "byteOffset": 21340,
      "byteLength": 80
    },
    {
      "buffer": 0,
      "byteOffset": 21420,
      "byteLength": 80
    },
    {
      "buffer": 0,
      "byteOffset": 21500,
      "byteLength": 80
    },
    {
      "buffer": 0,
      "byteOffset": 21580,
      "byteLength": 20
    },
    {
      "buffer": 0,
      "byteOffset": 21600,
      "byteLength": 80
    },
    {
      "buffer": 0,
      "byteOffset": 21680,
      "byteLength": 80
    },
    {
      "buffer": 0,
      "byteOffset": 21760,
      "byteLength": 80
    },
    {
      "buffer": 0,
      "byteOffset": 21840,
      "byteLength": 80
    },
    {
      "buffer": 0,
      "byteOffset": 21920,
      "byteLength": 80
    },
    {
      "buffer": 0,
      "byteOffset": 22000,
      "byteLength": 80
    },
    {
      "buffer": 0,
      "byteOffset": 22080,
      "byteLength": 80
    },
    {
      "buffer": 0,
      "byteOffset": 22160,
      "byteLength": 80
    },
    {
      "buffer": 0,
      "byteOffset": 22240,
      "byteLength": 20
    },
    {
      "buffer": 0,
      "byteOffset": 22260,
      "byteLength": 80
    },
    {
      "buffer": 0,
      "byteOffset": 22340,
      "byteLength": 80
    },
    {
      "buffer": 0,
      "byteOffset": 22420,
      "byteLength": 80
    },
    {
      "buffer": 0,
      "byteOffset": 22500,
      "byteLength": 80
    },
    {
      "buffer": 0,
      "byteOffset": 22580,
      "byteLength": 80
    },
    {
      "buffer": 0,
      "byteOffset": 22660,
      "byteLength": 80
    },
    {
      "buffer": 0,
      "byteOffset": 22740,
      "byteLength": 80
    },
    {
      "buffer": 0,
      "byteOffset": 22820,
      "byteLength": 80
    },
    {
      "buffer": 0,
      "byteOffset": 22900,
      "byteLength": 20
    },
    {
      "buffer": 0,
      "byteOffset": 22920,
      "byteLength": 80
    },
    {
      "buffer": 0,
      "byteOffset": 23000,
      "byteLength": 80
    },
    {
      "buffer": 0,
      "byteOffset": 23080,
      "byteLength": 80
    },
    {
      "buffer": 0,
      "byteOffset": 23160,
      "byteLength": 80
    },
    {
      "buffer": 0,
      "byteOffset": 23240,
      "byteLength": 80
    },
    {
      "buffer": 0,
      "byteOffset": 23320,
      "byteLength": 80
    },
    {
      "buffer": 0,
      "byteOffset": 23400,
      "byteLength": 80
    },
    {
      "buffer": 0,
      "byteOffset": 23480,
      "byteLength": 80
    },
    {
      "buffer": 0,
      "byteOffset": 23560,
      "byteLength": 80
    },
    {
      "buffer": 0,
      "byteOffset": 23640,
      "byteLength": 80
    },
    {
      "buffer": 0,
      "byteOffset": 23720,
      "byteLength": 80
    },
    {
      "buffer": 0,
      "byteOffset": 23800,
      "byteLength": 80
    },
    {
      "buffer": 0,
      "byteOffset": 23880,
      "byteLength": 20
    },
    {
      "buffer": 0,
      "byteOffset": 23900,
      "byteLength": 80
    },
    {
      "buffer": 0,
      "byteOffset": 23980,
      "byteLength": 80
    },
    {
      "buffer": 0,
      "byteOffset": 24060,
      "byteLength": 80
    },
    {
      "buffer": 0,
      "byteOffset": 24140,
      "byteLength": 80
    },
    {
      "buffer": 0,
      "byteOffset": 24220,
      "byteLength": 80
    },
    {
      "buffer": 0,
      "byteOffset": 24300,
      "byteLength": 80
    },
    {
      "buffer": 0,
      "byteOffset": 24380,
      "byteLength": 80
    },
    {
      "buffer": 0,
      "byteOffset": 24460,
      "byteLength": 80
    },
    {
      "buffer": 0,
      "byteOffset": 24540,
      "byteLength": 80
    },
    {
      "buffer": 0,
      "byteOffset": 24620,
      "byteLength": 80
    },
    {
      "buffer": 0,
      "byteOffset": 24700,
      "byteLength": 80
    },
    {
      "buffer": 0,
      "byteOffset": 24780,
      "byteLength": 80
    },
    {
      "buffer": 0,
      "byteOffset": 24860,
      "byteLength": 20
    },
    {
      "buffer": 0,
      "byteOffset": 24880,
      "byteLength": 80
    },
    {
      "buffer": 0,
      "byteOffset": 24960,
      "byteLength": 80
    },
    {
      "buffer": 0,
      "byteOffset": 25040,
      "byteLength": 80
    },
    {
      "buffer": 0,
      "byteOffset": 25120,
      "byteLength": 80
    },
    {
      "buffer": 0,
      "byteOffset": 25200,
      "byteLength": 80
    },
    {
      "buffer": 0,
      "byteOffset": 25280,
      "byteLength": 80
    },
    {
      "buffer": 0,
      "byteOffset": 25360,
      "byteLength": 80
    },
    {
      "buffer": 0,
      "byteOffset": 25440,
      "byteLength": 80
    },
    {
      "buffer": 0,
      "byteOffset": 25520,
      "byteLength": 80
    },
    {
      "buffer": 0,
      "byteOffset": 25600,
      "byteLength": 80
    },
    {
      "buffer": 0,
      "byteOffset": 25680,
      "byteLength": 80
    },
    {
      "buffer": 0,
      "byteOffset": 25760,
      "byteLength": 80
    },
    {
      "buffer": 0,
      "byteOffset": 25840,
      "byteLength": 80
    },
    {
      "buffer": 0,
      "byteOffset": 25920,
      "byteLength": 20
    },
    {
      "buffer": 0,
      "byteOffset": 25940,
      "byteLength": 80
    },
    {
      "buffer": 0,
      "byteOffset": 26020,
      "byteLength": 80
    },
    {
      "buffer": 0,
      "byteOffset": 26100,
      "byteLength": 80
    },
    {
      "buffer": 0,
      "byteOffset": 26180,
      "byteLength": 80
    },
    {
      "buffer": 0,
      "byteOffset": 26260,
      "byteLength": 80
    },
    {
      "buffer": 0,
      "byteOffset": 26340,
      "byteLength": 80
    },
    {
      "buffer": 0,
      "byteOffset": 26420,
      "byteLength": 80
    },
    {
      "buffer": 0,
      "byteOffset": 26500,
      "byteLength": 80
    },
    {
      "buffer": 0,
      "byteOffset": 26580,
      "byteLength": 80
    },
    {
      "buffer": 0,
      "byteOffset": 26660,
      "byteLength": 80
    },
    {
      "buffer": 0,
      "byteOffset": 26740,
      "byteLength": 80
    },
    {
      "buffer": 0,
      "byteOffset": 26820,
      "byteLength": 80
    },
    {
      "buffer": 0,
      "byteOffset": 26900,
      "byteLength": 80
    },
    {
      "buffer": 0,
      "byteOffset": 26980,
      "byteLength": 16
    },
    {
      "buffer": 0,
      "byteOffset": 26996,
      "byteLength": 64
    },
    {
      "buffer": 0,
      "byteOffset": 27060,
      "byteLength": 64
    },
    {
      "buffer": 0,
      "byteOffset": 27124,
      "byteLength": 64
    },
    {
      "buffer": 0,
      "byteOffset": 27188,
      "byteLength": 64
    },
    {
      "buffer": 0,
      "byteOffset": 27252,
      "byteLength": 64
    },
    {
      "buffer": 0,
      "byteOffset": 27316,
      "byteLength": 16
    },
    {
      "buffer": 0,
      "byteOffset": 27332,
      "byteLength": 64
    },
    {
      "buffer": 0,
      "byteOffset": 27396,
      "byteLength": 64
    },
    {
      "buffer": 0,
      "byteOffset": 27460,
      "byteLength": 64
    }
  ],
  "buffers": [
    {
      "byteLength": 27524,
      "uri": "data:application/octet-stream;base64,"
    }
  ]
}