{
  "accessors": [
    {
      "bufferView": 0,
      "componentType": 5126,
      "count": 408,
      "max": [
        0.7999999999999999,
        0.89,
        0.21000000000000002
      ],
      "min": [
        -0.7999999999999999,
        -0.56,
        -0.08
      ],
      "type": "VEC3"
    },
    {
      "bufferView": 1,
      "componentType": 5126,
      "count": 408,
      "type": "VEC3"
    },
    {
      "bufferView": 2,
      "componentType": 5121,
      "count": 408,
      "type": "VEC4"
    },
    {
      "bufferView": 3,
      "componentType": 5126,
      "count": 408,
      "type": "VEC4"
    },
    {
      "bufferView": 4,
      "componentType": 5123,
      "count": 612,
      "type": "SCALAR"
    },
    {
      "bufferView": 5,
      "componentType": 5126,
      "count": 17,
      "type": "MAT4"
    },
    {
      "bufferView": 6,
      "componentType": 5126,
      "count": 3,
      "max": [
        2.0
      ],
      "min": [
        0.0
      ],
      "type": "SCALAR"
    },
    {
      "bufferView": 7,
      "componentType": 5126,
      "count": 3,
      "type": "VEC4"
    },
    {
      "bufferView": 8,
      "componentType": 5126,
      "count": 3,
      "type": "VEC4"
    },
    {
      "bufferView": 9,
      "componentType": 5126,
      "count": 3,
      "type": "VEC4"
    },
    {
      "bufferView": 10,
      "componentType": 5126,
      "count": 5,
      "max": [
        0.8
      ],
      "min": [
        0.0
      ],
      "type": "SCALAR"
    },
    {
      "bufferView": 11,
      "componentType": 5126,
      "count": 5,
      "type": "VEC4"
    },
    {
      "bufferView": 12,
      "componentType": 5126,
      "count": 5,
      "type": "VEC4"
    },
    {
      "bufferView": 13,
      "componentType": 5126,
      "count": 5,
      "type": "VEC4"
    },
    {
      "bufferView": 14,
      "componentType": 5126,
      "count": 5,
      "type": "VEC4"
    },
    {
      "bufferView": 15,
      "componentType": 5126,
      "count": 5,
      "type": "VEC4"
    },
    {
      "bufferView": 16,
      "componentType": 5126,
      "count": 5,
      "type": "VEC4"
    },
    {
      "bufferView": 17,
      "componentType": 5126,
      "count": 5,
      "type": "VEC4"
    },
    {
      "bufferView": 18,
      "componentType": 5126,
      "count": 5,
      "max": [
        0.5
      ],
      "min": [
        0.0
      ],
      "type": "SCALAR"
    },
    {
      "bufferView": 19,
      "componentType": 5126,
      "count": 5,
      "type": "VEC4"
    },
    {
      "bufferView": 20,
      "componentType": 5126,
      "count": 5,
      "type": "VEC4"
    },
    {
      "bufferView": 21,
      "componentType": 5126,
      "count": 5,
      "type": "VEC4"
    },
    {
      "bufferView": 22,
      "componentType": 5126,
      "count": 5,
      "type": "VEC4"
    },
    {
      "bufferView": 23,
      "componentType": 5126,
      "count": 5,
      "type": "VEC4"
    },
    {
      "bufferView": 24,
      "componentType": 5126,
      "count": 5,
      "type": "VEC4"
    },
    {
      "bufferView": 25,
      "componentType": 5126,
      "count": 5,
      "type": "VEC4"
    },
    {
      "bufferView": 26,
      "componentType": 5126,
      "count": 5,
      "type": "VEC4"
    },
    {
      "bufferView": 27,
      "componentType": 5126,
      "count": 4,
      "max": [
        0.55
      ],
      "min": [
        0.0
      ],
      "type": "SCALAR"
    },
    {
      "bufferView": 28,
      "componentType": 5126,
      "count": 4,
      "type": "VEC4"
    },
    {
      "bufferView": 29,
      "componentType": 5126,
      "count": 4,
      "type": "VEC4"
    },
    {
      "bufferView": 30,
      "componentType": 5126,
      "count": 4,
      "type": "VEC4"
    },
    {
      "bufferView": 31,
      "componentType": 5126,
      "count": 4,
      "type": "VEC4"
    },
    {
      "bufferView": 32,
      "componentType": 5126,
      "count": 4,
      "type": "VEC4"
    },
    {
      "bufferView": 33,
      "componentType": 5126,
      "count": 4,
      "max": [
        0.5
      ],
      "min": [
        0.0
      ],
      "type": "SCALAR"
    },
    {
      "bufferView": 34,
      "componentType": 5126,
      "count": 4,
      "type": "VEC4"
    },
    {
      "bufferView": 35,
      "componentType": 5126,
      "count": 4,
      "type": "VEC4"
    },
    {
      "bufferView": 36,
      "componentType": 5126,
      "count": 4,
      "type": "VEC4"
    },
    {
      "bufferView": 37,
      "componentType": 5126,
      "count": 4,
      "max": [
        1.2
      ],
      "min": [
        0.0
      ],
      "type": "SCALAR"
    },
    {
      "bufferView": 38,
      "componentType": 5126,
      "count": 4,
      "type": "VEC4"
    },
    {
      "bufferView": 39,
      "componentType": 5126,
      "count": 4,
      "type": "VEC4"
    },
    {
      "bufferView": 40,
      "componentType": 5126,
      "count": 4,
      "type": "VEC4"
    },
    {
      "bufferView": 41,
      "componentType": 5126,
      "count": 4,
      "type": "VEC4"
    },
    {
      "bufferView": 42,
      "componentType": 5126,
      "count": 4,
      "type": "VEC4"
    },
    {
      "bufferView": 43,
      "componentType": 5126,
      "count": 4,
      "type": "VEC4"
    }
  ],
  "animations": [
    {
      "channels": [
        {
          "sampler": 0,
          "target": {
            "node": 1,
            "path": "rotation"
          }
        },
        {
          "sampler": 1,
          "target": {
            "node": 5,
            "path": "rotation"
          }
        },
        {
          "sampler": 2,
          "target": {
            "node": 8,
            "path": "rotation"
          }
        }
      ],
      "name": "Idle",
      "samplers": [
        {
          "input": 6,
          "interpolation": "LINEAR",
          "output": 7
        },
        {
          "input": 6,
          "interpolation": "LINEAR",
          "output": 8
        },
        {
          "input": 6,
          "interpolation": "LINEAR",
          "output": 9
        }
      ]
    },
    {
      "channels": [
        {
          "sampler": 0,
          "target": {
            "node": 11,
            "path": "rotation"
          }
        },
        {
          "sampler": 1,
          "target": {
            "node": 14,
            "path": "rotation"
          }
        },
        {
          "sampler": 2,
          "target": {
            "node": 12,
            "path": "rotation"
          }
        },
        {
          "sampler": 3,
          "target": {
            "node": 15,
            "path": "rotation"
          }
        },
        {
          "sampler": 4,
          "target": {
            "node": 5,
            "path": "rotation"
          }
        },
        {
          "sampler": 5,
          "target": {
            "node": 8,
            "path": "rotation"
          }
        },
        {
          "sampler": 6,
          "target": {
            "node": 1,
            "path": "rotation"
          }
        }
      ],
      "name": "Walk",
      "samplers": [
        {
          "input": 10,
          "interpolation": "LINEAR",
          "output": 11
        },
        {
          "input": 10,
          "interpolation": "LINEAR",
          "output": 12
        },
        {
          "input": 10,
          "interpolation": "LINEAR",
          "output": 13
        },
        {
          "input": 10,
          "interpolation": "LINEAR",
          "output": 14
        },
        {
          "input": 10,
          "interpolation": "LINEAR",
          "output": 15
        },
        {
          "input": 10,
          "interpolation": "LINEAR",
          "output": 16
        },
        {
          "input": 10,
          "interpolation": "LINEAR",
          "output": 17
        }
      ]
    },
    {
      "channels": [
        {
          "sampler": 0,
          "target": {
            "node": 11,
            "path": "rotation"
          }
        },
        {
          "sampler": 1,
          "target": {
            "node": 14,
            "path": "rotation"
          }
        },
        {
          "sampler": 2,
          "target": {
            "node": 12,
            "path": "rotation"
          }
        },
        {
          "sampler": 3,
          "target": {
            "node": 15,
            "path": "rotation"
          }
        },
        {
          "sampler": 4,
          "target": {
            "node": 5,
            "path": "rotation"
          }
        },
        {
          "sampler": 5,
          "target": {
            "node": 8,
            "path": "rotation"
          }
        },
        {
          "sampler": 6,
          "target": {
            "node": 1,
            "path": "rotation"
          }
        },
        {
          "sampler": 7,
          "target": {
            "node": 2,
            "path": "rotation"
          }
        }
      ],
      "name": "Run",
      "samplers": [
        {
          "input": 18,
          "interpolation": "LINEAR",
          "output": 19
        },
        {
          "input": 18,
          "interpolation": "LINEAR",
          "output": 20
        },
        {
          "input": 18,
          "interpolation": "LINEAR",
          "output": 21
        },
        {
          "input": 18,
          "interpolation": "LINEAR",
          "output": 22
        },
        {
          "input": 18,
          "interpolation": "LINEAR",
          "output": 23
        },
        {
          "input": 18,
          "interpolation": "LINEAR",
          "output": 24
        },
        {
          "input": 18,
          "interpolation": "LINEAR",
          "output": 25
        },
        {
          "input": 18,
          "interpolation": "LINEAR",
          "output": 26
        }
      ]
    },
    {
      "channels": [
        {
          "sampler": 0,
          "target": {
            "node": 5,
            "path": "rotation"
          }
        },
        {
          "sampler": 1,
          "target": {
            "node": 8,
            "path": "rotation"
          }
        },
        {
          "sampler": 2,
          "target": {
            "node": 6,
            "path": "rotation"
          }
        },
        {
          "sampler": 3,
          "target": {
            "node": 9,
            "path": "rotation"
          }
        },
        {
          "sampler": 4,
          "target": {
            "node": 2,
            "path": "rotation"
          }
        }
      ],
      "name": "Shoot",
      "samplers": [
        {
          "input": 27,
          "interpolation": "LINEAR",
          "output": 28
        },
        {
          "input": 27,
          "interpolation": "LINEAR",
          "output": 29
        },
        {
          "input": 27,
          "interpolation": "LINEAR",
          "output": 30
        },
        {
          "input": 27,
          "interpolation": "LINEAR",
          "output": 31
        },
        {
          "input": 27,
          "interpolation": "LINEAR",
          "output": 32
        }
      ]
    },
    {
      "channels": [
        {
          "sampler": 0,
          "target": {
            "node": 8,
            "path": "rotation"
          }
        },
        {
          "sampler": 1,
          "target": {
            "node": 9,
            "path": "rotation"
          }
        },
        {
          "sampler": 2,
          "target": {
            "node": 2,
            "path": "rotation"
          }
        }
      ],
      "name": "SwingSword",
      "samplers": [
        {
          "input": 33,
          "interpolation": "LINEAR",
          "output": 34
        },
        {
          "input": 33,
          "interpolation": "LINEAR",
          "output": 35
        },
        {
          "input": 33,
          "interpolation": "LINEAR",
          "output": 36
        }
      ]
    },
    {
      "channels": [
        {
          "sampler": 0,
          "target": {
            "node": 0,
            "path": "rotation"
          }
        },
        {
          "sampler": 1,
          "target": {
            "node": 1,
            "path": "rotation"
          }
        },
        {
          "sampler": 2,
          "target": {
            "node": 11,
            "path": "rotation"
          }
        },
        {
          "sampler": 3,
          "target": {
            "node": 14,
            "path": "rotation"
          }
        },
        {
          "sampler": 4,
          "target": {
            "node": 5,
            "path": "rotation"
          }
        },
        {
          "sampler": 5,
          "target": {
            "node": 8,
            "path": "rotation"
          }
        }
      ],
      "name": "Die",
      "samplers": [
        {
          "input": 37,
          "interpolation": "LINEAR",
          "output": 38
        },
        {
          "input": 37,
          "interpolation": "LINEAR",
          "output": 39
        },
        {
          "input": 37,
          "interpolation": "LINEAR",
          "output": 40
        },
        {
          "input": 37,
          "interpolation": "LINEAR",
          "output": 41
        },
        {
          "input": 37,
          "interpolation": "LINEAR",
          "output": 42
        },
        {
          "input": 37,
          "interpolation": "LINEAR",
          "output": 43
        }
      ]
    }
  ],
  "asset": {
    "generator": "DarkEngine6 skeleton",
    "version": "2.0"
  },
  "bufferViews": [
    {
      "buffer": 0,
      "byteLength": 4896,
      "byteOffset": 0,
      "target": 34962
    },
    {
      "buffer": 0,
      "byteLength": 4896,
      "byteOffset": 4896,
      "target": 34962
    },
    {
      "buffer": 0,
      "byteLength": 1632,
      "byteOffset": 9792,
      "target": 34962
    },
    {
      "buffer": 0,
      "byteLength": 6528,
      "byteOffset": 11424,
      "target": 34962
    },
    {
      "buffer": 0,
      "byteLength": 1224,
      "byteOffset": 17952,
      "target": 34963
    },
    {
      "buffer": 0,
      "byteLength": 1088,
      "byteOffset": 19176
    },
    {
      "buffer": 0,
      "byteLength": 12,
      "byteOffset": 20264
    },
    {
      "buffer": 0,
      "byteLength": 48,
      "byteOffset": 20276
    },
    {
      "buffer": 0,
      "byteLength": 48,
      "byteOffset": 20324
    },
    {
      "buffer": 0,
      "byteLength": 48,
      "byteOffset": 20372
    },
    {
      "buffer": 0,
      "byteLength": 20,
      "byteOffset": 20420
    },
    {
      "buffer": 0,
      "byteLength": 80,
      "byteOffset": 20440
    },
    {
      "buffer": 0,
      "byteLength": 80,
      "byteOffset": 20520
    },
    {
      "buffer": 0,
      "byteLength": 80,
      "byteOffset": 20600
    },
    {
      "buffer": 0,
      "byteLength": 80,
      "byteOffset": 20680
    },
    {
      "buffer": 0,
      "byteLength": 80,
      "byteOffset": 20760
    },
    {
      "buffer": 0,
      "byteLength": 80,
      "byteOffset": 20840
    },
    {
      "buffer": 0,
      "byteLength": 80,
      "byteOffset": 20920
    },
    {
      "buffer": 0,
      "byteLength": 20,
      "byteOffset": 21000
    },
    {
      "buffer": 0,
      "byteLength": 80,
      "byteOffset": 21020
    },
    {
      "buffer": 0,
      "byteLength": 80,
      "byteOffset": 21100
    },
    {
      "buffer": 0,
      "byteLength": 80,
      "byteOffset": 21180
    },
    {
      "buffer": 0,
      "byteLength": 80,
      "byteOffset": 21260
    },
    {
      "buffer": 0,
      "byteLength": 80,
      "byteOffset": 21340
    },
    {
      "buffer": 0,
      "byteLength": 80,
      "byteOffset": 21420
    },
    {
      "buffer": 0,
      "byteLength": 80,
      "byteOffset": 21500
    },
    {
      "buffer": 0,
      "byteLength": 80,
      "byteOffset": 21580
    },
    {
      "buffer": 0,
      "byteLength": 16,
      "byteOffset": 21660
    },
    {
      "buffer": 0,
      "byteLength": 64,
      "byteOffset": 21676
    },
    {
      "buffer": 0,
      "byteLength": 64,
      "byteOffset": 21740
    },
    {
      "buffer": 0,
      "byteLength": 64,
      "byteOffset": 21804
    },
    {
      "buffer": 0,
      "byteLength": 64,
      "byteOffset": 21868
    },
    {
      "buffer": 0,
      "byteLength": 64,
      "byteOffset": 21932
    },
    {
      "buffer": 0,
      "byteLength": 16,
      "byteOffset": 21996
    },
    {
      "buffer": 0,
      "byteLength": 64,
      "byteOffset": 22012
    },
    {
      "buffer": 0,
      "byteLength": 64,
      "byteOffset": 22076
    },
    {
      "buffer": 0,
      "byteLength": 64,
      "byteOffset": 22140
    },
    {
      "buffer": 0,
      "byteLength": 16,
      "byteOffset": 22204
    },
    {
      "buffer": 0,
      "byteLength": 64,
      "byteOffset": 22220
    },
    {
      "buffer": 0,
      "byteLength": 64,
      "byteOffset": 22284
    },
    {
      "buffer": 0,
      "byteLength": 64,
      "byteOffset": 22348
    },
    {
      "buffer": 0,
      "byteLength": 64,
      "byteOffset": 22412
    },
    {
      "buffer": 0,
      "byteLength": 64,
      "byteOffset": 22476
    },
    {
      "buffer": 0,
      "byteLength": 64,
      "byteOffset": 22540
    }
  ],
  "buffers": [
    {
      "byteLength": 22604,
      "uri": "data:application/octet-stream;base64,"
    }
  ],
  "materials": [
    {
      "alphaMode": "OPAQUE",
      "pbrMetallicRoughness": {
        "baseColorFactor": [
          0.8211382031440735,
          0.7401315569877625,
          0.1568841189146042,
          1.0
        ],
        "metallicFactor": 0.027000000700354576,
        "roughnessFactor": 0.2809999883174896
      }
    }
  ],
  "meshes": [
    {
      "primitives": [
        {
          "attributes": {
            "JOINTS_0": 2,
            "NORMAL": 1,
            "POSITION": 0,
            "WEIGHTS_0": 3
          },
          "indices": 4,
          "material": 0
        }
      ]
    }
  ],
  "nodes": [
    {
      "children": [
        1,
        11,
        14
      ],
      "name": "Hips",
      "translation": [
        0.0,
        0.0,
        0.0
      ]
    },
    {
      "children": [
        2
      ],
      "name": "Spine",
      "translation": [
        0.0,
        0.18,
        0.0
      ]
    },
    {
      "children": [
        3,
        5,
        8
      ],
      "name": "Chest",
      "translation": [
        0.0,
        0.18,
        0.0
      ]
    },
    {
      "children": [
        4
      ],
      "name": "Neck",
      "translation": [
        0.0,
        0.16,
        0.0
      ]
    },
    {
      "name": "Head",
      "translation": [
        0.0,
        0.14,
        0.0
      ]
    },
    {
      "children": [
        6
      ],
      "name": "L_UpperArm",
      "translation": [
        0.16,
        0.14,
        0.0
      ]
    },
    {
      "children": [
        7
      ],
      "name": "L_LowerArm",
      "translation": [
        0.26,
        0.0,
        0.0
      ]
    },
    {
      "name": "L_Hand",
      "translation": [
        0.22,
        0.0,
        0.0
      ]
    },
    {
      "children": [
        9
      ],
      "name": "R_UpperArm",
      "translation": [
        -0.16,
        0.14,
        0.0
      ]
    },
    {
      "children": [
        10
      ],
      "name": "R_LowerArm",
      "translation": [
        -0.26,
        0.0,
        0.0
      ]
    },
    {
      "name": "R_Hand",
      "translation": [
        -0.22,
        0.0,
        0.0
      ]
    },
    {
      "children": [
        12
      ],
      "name": "L_UpperLeg",
      "translation": [
        0.09,
        -0.02,
        0.0
      ]
    },
    {
      "children": [
        13
      ],
      "name": "L_LowerLeg",
      "translation": [
        0.0,
        -0.24,
        0.0
      ]
    },
    {
      "name": "L_Foot",
      "translation": [
        0.0,
        -0.22,
        0.04
      ]
    },
    {
      "children": [
        15
      ],
      "name": "R_UpperLeg",
      "translation": [
        -0.09,
        -0.02,
        0.0
      ]
    },
    {
      "children": [
        16
      ],
      "name": "R_LowerLeg",
      "translation": [
        0.0,
        -0.24,
        0.0
      ]
    },
    {
      "name": "R_Foot",
      "translation": [
        0.0,
        -0.22,
        0.04
      ]
    },
    {
      "mesh": 0,
      "name": "Mesh",
      "skin": 0
    }
  ],
  "scene": 0,
  "scenes": [
    {
      "nodes": [
        0,
        17
      ]
    }
  ],
  "skins": [
    {
      "inverseBindMatrices": 5,
      "joints": [
        0,
        1,
        2,
        3,
        4,
        5,
        6,
        7,
        8,
        9,
        10,
        11,
        12,
        13,
        14,
        15,
        16
      ],
      "skeleton": 0
    }
  ]
}