{
  "asset": {
    "version": "2.0",
    "generator": "DarkEngine6 wolf"
  },
  "scene": 0,
  "scenes": [
    {
      "nodes": [
        0,
        23
      ]
    }
  ],
  "nodes": [
    {
      "name": "Hips",
      "translation": [
        0.0,
        0.0,
        0.0
      ],
      "children": [
        1,
        6,
        15,
        18
      ]
    },
    {
      "name": "Spine",
      "translation": [
        0.0,
        0.02,
        0.16
      ],
      "children": [
        2
      ]
    },
    {
      "name": "Chest",
      "translation": [
        0.0,
        0.0,
        0.2
      ],
      "children": [
        3,
        9,
        12
      ]
    },
    {
      "name": "Neck",
      "translation": [
        0.0,
        0.06,
        0.14
      ],
      "children": [
        4
      ]
    },
    {
      "name": "Head",
      "translation": [
        0.0,
        0.03,
        0.14
      ],
      "children": [
        5,
        21,
        22
      ]
    },
    {
      "name": "Jaw",
      "translation": [
        0.0,
        -0.05,
        0.08
      ]
    },
    {
      "name": "Tail0",
      "translation": [
        0.0,
        0.04,
        -0.16
      ],
      "children": [
        7
      ]
    },
    {
      "name": "Tail1",
      "translation": [
        0.0,
        0.01,
        -0.14
      ],
      "children": [
        8
      ]
    },
    {
      "name": "Tail2",
      "translation": [
        0.0,
        -0.02,
        -0.12
      ]
    },
    {
      "name": "L_F_Upper",
      "translation": [
        0.1,
        -0.04,
        0.04
      ],
      "children": [
        10
      ]
    },
    {
      "name": "L_F_Lower",
      "translation": [
        0.0,
        -0.22,
        0.01
      ],
      "children": [
        11
      ]
    },
    {
      "name": "L_F_Foot",
      "translation": [
        0.0,
        -0.22,
        0.04
      ]
    },
    {
      "name": "R_F_Upper",
      "translation": [
        -0.1,
        -0.04,
        0.04
      ],
      "children": [
        13
      ]
    },
    {
      "name": "R_F_Lower",
      "translation": [
        0.0,
        -0.22,
        0.01
      ],
      "children": [
        14
      ]
    },
    {
      "name": "R_F_Foot",
      "translation": [
        0.0,
        -0.22,
        0.04
      ]
    },
    {
      "name": "L_R_Upper",
      "translation": [
        0.1,
        -0.04,
        -0.08
      ],
      "children": [
        16
      ]
    },
    {
      "name": "L_R_Lower",
      "translation": [
        0.0,
        -0.22,
        0.0
      ],
      "children": [
        17
      ]
    },
    {
      "name": "L_R_Foot",
      "translation": [
        0.0,
        -0.22,
        0.04
      ]
    },
    {
      "name": "R_R_Upper",
      "translation": [
        -0.1,
        -0.04,
        -0.08
      ],
      "children": [
        19
      ]
    },
    {
      "name": "R_R_Lower",
      "translation": [
        0.0,
        -0.22,
        0.0
      ],
      "children": [
        20
      ]
    },
    {
      "name": "R_R_Foot",
      "translation": [
        0.0,
        -0.22,
        0.04
      ]
    },
    {
      "name": "L_Ear",
      "translation": [
        0.05,
        0.1,
        -0.02
      ]
    },
    {
      "name": "R_Ear",
      "translation": [
        -0.05,
        0.1,
        -0.02
      ]
    },
    {
      "name": "Mesh",
      "mesh": 0,
      "skin": 0
    }
  ],
  "skins": [
    {
      "joints": [
        0,
        1,
        2,
        3,
        4,
        5,
        6,
        7,
        8,
        9,
        10,
        11,
        12,
        13,
        14,
        15,
        16,
        17,
        18,
        19,
        20,
        21,
        22
      ],
      "inverseBindMatrices": 5,
      "skeleton": 0
    }
  ],
  "meshes": [
    {
      "primitives": [
        {
          "attributes": {
            "POSITION": 0,
            "NORMAL": 1,
            "JOINTS_0": 2,
            "WEIGHTS_0": 3
          },
          "indices": 4,
          "material": 0
        }
      ]
    }
  ],
  "materials": [
    {
      "name": "WolfFur",
      "pbrMetallicRoughness": {
        "baseColorFactor": [
          0.45,
          0.4,
          0.36,
          1.0
        ],
        "metallicFactor": 0.0,
        "roughnessFactor": 0.72
      }
    }
  ],
  "animations": [
    {
      "name": "Idle",
      "samplers": [
        {
          "input": 6,
          "output": 7,
          "interpolation": "LINEAR"
        },
        {
          "input": 6,
          "output": 8,
          "interpolation": "LINEAR"
        },
        {
          "input": 6,
          "output": 9,
          "interpolation": "LINEAR"
        },
        {
          "input": 6,
          "output": 10,
          "interpolation": "LINEAR"
        },
        {
          "input": 6,
          "output": 11,
          "interpolation": "LINEAR"
        },
        {
          "input": 6,
          "output": 12,
          "interpolation": "LINEAR"
        },
        {
          "input": 6,
          "output": 13,
          "interpolation": "LINEAR"
        },
        {
          "input": 6,
          "output": 14,
          "interpolation": "LINEAR"
        }
      ],
      "channels": [
        {
          "sampler": 0,
          "target": {
            "node": 1,
            "path": "rotation"
          }
        },
        {
          "sampler": 1,
          "target": {
            "node": 2,
            "path": "rotation"
          }
        },
        {
          "sampler": 2,
          "target": {
            "node": 4,
            "path": "rotation"
          }
        },
        {
          "sampler": 3,
          "target": {
            "node": 6,
            "path": "rotation"
          }
        },
        {
          "sampler": 4,
          "target": {
            "node": 7,
            "path": "rotation"
          }
        },
        {
          "sampler": 5,
          "target": {
            "node": 8,
            "path": "rotation"
          }
        },
        {
          "sampler": 6,
          "target": {
            "node": 21,
            "path": "rotation"
          }
        },
        {
          "sampler": 7,
          "target": {
            "node": 22,
            "path": "rotation"
          }
        }
      ]
    },
    {
      "name": "Walk",
      "samplers": [
        {
          "input": 15,
          "output": 16,
          "interpolation": "LINEAR"
        },
        {
          "input": 15,
          "output": 17,
          "interpolation": "LINEAR"
        },
        {
          "input": 15,
          "output": 18,
          "interpolation": "LINEAR"
        },
        {
          "input": 15,
          "output": 19,
          "interpolation": "LINEAR"
        },
        {
          "input": 15,
          "output": 20,
          "interpolation": "LINEAR"
        },
        {
          "input": 15,
          "output": 21,
          "interpolation": "LINEAR"
        },
        {
          "input": 15,
          "output": 22,
          "interpolation": "LINEAR"
        },
        {
          "input": 15,
          "output": 23,
          "interpolation": "LINEAR"
        },
        {
          "input": 15,
          "output": 24,
          "interpolation": "LINEAR"
        },
        {
          "input": 15,
          "output": 25,
          "interpolation": "LINEAR"
        },
        {
          "input": 15,
          "output": 26,
          "interpolation": "LINEAR"
        }
      ],
      "channels": [
        {
          "sampler": 0,
          "target": {
            "node": 9,
            "path": "rotation"
          }
        },
        {
          "sampler": 1,
          "target": {
            "node": 12,
            "path": "rotation"
          }
        },
        {
          "sampler": 2,
          "target": {
            "node": 15,
            "path": "rotation"
          }
        },
        {
          "sampler": 3,
          "target": {
            "node": 18,
            "path": "rotation"
          }
        },
        {
          "sampler": 4,
          "target": {
            "node": 10,
            "path": "rotation"
          }
        },
        {
          "sampler": 5,
          "target": {
            "node": 13,
            "path": "rotation"
          }
        },
        {
          "sampler": 6,
          "target": {
            "node": 16,
            "path": "rotation"
          }
        },
        {
          "sampler": 7,
          "target": {
            "node": 19,
            "path": "rotation"
          }
        },
        {
          "sampler": 8,
          "target": {
            "node": 1,
            "path": "rotation"
          }
        },
        {
          "sampler": 9,
          "target": {
            "node": 6,
            "path": "rotation"
          }
        },
        {
          "sampler": 10,
          "target": {
            "node": 7,
            "path": "rotation"
          }
        }
      ]
    },
    {
      "name": "Run",
      "samplers": [
        {
          "input": 27,
          "output": 28,
          "interpolation": "LINEAR"
        },
        {
          "input": 27,
          "output": 29,
          "interpolation": "LINEAR"
        },
        {
          "input": 27,
          "output": 30,
          "interpolation": "LINEAR"
        },
        {
          "input": 27,
          "output": 31,
          "interpolation": "LINEAR"
        },
        {
          "input": 27,
          "output": 32,
          "interpolation": "LINEAR"
        },
        {
          "input": 27,
          "output": 33,
          "interpolation": "LINEAR"
        },
        {
          "input": 27,
          "output": 34,
          "interpolation": "LINEAR"
        },
        {
          "input": 27,
          "output": 35,
          "interpolation": "LINEAR"
        },
        {
          "input": 27,
          "output": 36,
          "interpolation": "LINEAR"
        },
        {
          "input": 27,
          "output": 37,
          "interpolation": "LINEAR"
        },
        {
          "input": 27,
          "output": 38,
          "interpolation": "LINEAR"
        },
        {
          "input": 27,
          "output": 39,
          "interpolation": "LINEAR"
        },
        {
          "input": 27,
          "output": 40,
          "interpolation": "LINEAR"
        }
      ],
      "channels": [
        {
          "sampler": 0,
          "target": {
            "node": 9,
            "path": "rotation"
          }
        },
        {
          "sampler": 1,
          "target": {
            "node": 12,
            "path": "rotation"
          }
        },
        {
          "sampler": 2,
          "target": {
            "node": 15,
            "path": "rotation"
          }
        },
        {
          "sampler": 3,
          "target": {
            "node": 18,
            "path": "rotation"
          }
        },
        {
          "sampler": 4,
          "target": {
            "node": 10,
            "path": "rotation"
          }
        },
        {
          "sampler": 5,
          "target": {
            "node": 13,
            "path": "rotation"
          }
        },
        {
          "sampler": 6,
          "target": {
            "node": 16,
            "path": "rotation"
          }
        },
        {
          "sampler": 7,
          "target": {
            "node": 19,
            "path": "rotation"
          }
        },
        {
          "sampler": 8,
          "target": {
            "node": 0,
            "path": "rotation"
          }
        },
        {
          "sampler": 9,
          "target": {
            "node": 1,
            "path": "rotation"
          }
        },
        {
          "sampler": 10,
          "target": {
            "node": 2,
            "path": "rotation"
          }
        },
        {
          "sampler": 11,
          "target": {
            "node": 3,
            "path": "rotation"
          }
        },
        {
          "sampler": 12,
          "target": {
            "node": 6,
            "path": "rotation"
          }
        }
      ]
    },
    {
      "name": "Bite",
      "samplers": [
        {
          "input": 41,
          "output": 42,
          "interpolation": "LINEAR"
        },
        {
          "input": 41,
          "output": 43,
          "interpolation": "LINEAR"
        },
        {
          "input": 41,
          "output": 44,
          "interpolation": "LINEAR"
        },
        {
          "input": 41,
          "output": 45,
          "interpolation": "LINEAR"
        },
        {
          "input": 41,
          "output": 46,
          "interpolation": "LINEAR"
        },
        {
          "input": 41,
          "output": 47,
          "interpolation": "LINEAR"
        },
        {
          "input": 41,
          "output": 48,
          "interpolation": "LINEAR"
        }
      ],
      "channels": [
        {
          "sampler": 0,
          "target": {
            "node": 3,
            "path": "rotation"
          }
        },
        {
          "sampler": 1,
          "target": {
            "node": 4,
            "path": "rotation"
          }
        },
        {
          "sampler": 2,
          "target": {
            "node": 5,
            "path": "rotation"
          }
        },
        {
          "sampler": 3,
          "target": {
            "node": 1,
            "path": "rotation"
          }
        },
        {
          "sampler": 4,
          "target": {
            "node": 2,
            "path": "rotation"
          }
        },
        {
          "sampler": 5,
          "target": {
            "node": 9,
            "path": "rotation"
          }
        },
        {
          "sampler": 6,
          "target": {
            "node": 12,
            "path": "rotation"
          }
        }
      ]
    },
    {
      "name": "Jump",
      "samplers": [
        {
          "input": 49,
          "output": 50,
          "interpolation": "LINEAR"
        },
        {
          "input": 49,
          "output": 51,
          "interpolation": "LINEAR"
        },
        {
          "input": 49,
          "output": 52,
          "interpolation": "LINEAR"
        },
        {
          "input": 49,
          "output": 53,
          "interpolation": "LINEAR"
        },
        {
          "input": 49,
          "output": 54,
          "interpolation": "LINEAR"
        },
        {
          "input": 49,
          "output": 55,
          "interpolation": "LINEAR"
        },
        {
          "input": 49,
          "output": 56,
          "interpolation": "LINEAR"
        },
        {
          "input": 49,
          "output": 57,
          "interpolation": "LINEAR"
        },
        {
          "input": 49,
          "output": 58,
          "interpolation": "LINEAR"
        },
        {
          "input": 49,
          "output": 59,
          "interpolation": "LINEAR"
        },
        {
          "input": 49,
          "output": 60,
          "interpolation": "LINEAR"
        },
        {
          "input": 49,
          "output": 61,
          "interpolation": "LINEAR"
        }
      ],
      "channels": [
        {
          "sampler": 0,
          "target": {
            "node": 0,
            "path": "rotation"
          }
        },
        {
          "sampler": 1,
          "target": {
            "node": 1,
            "path": "rotation"
          }
        },
        {
          "sampler": 2,
          "target": {
            "node": 3,
            "path": "rotation"
          }
        },
        {
          "sampler": 3,
          "target": {
            "node": 9,
            "path": "rotation"
          }
        },
        {
          "sampler": 4,
          "target": {
            "node": 12,
            "path": "rotation"
          }
        },
        {
          "sampler": 5,
          "target": {
            "node": 15,
            "path": "rotation"
          }
        },
        {
          "sampler": 6,
          "target": {
            "node": 18,
            "path": "rotation"
          }
        },
        {
          "sampler": 7,
          "target": {
            "node": 10,
            "path": "rotation"
          }
        },
        {
          "sampler": 8,
          "target": {
            "node": 13,
            "path": "rotation"
          }
        },
        {
          "sampler": 9,
          "target": {
            "node": 16,
            "path": "rotation"
          }
        },
        {
          "sampler": 10,
          "target": {
            "node": 19,
            "path": "rotation"
          }
        },
        {
          "sampler": 11,
          "target": {
            "node": 6,
            "path": "rotation"
          }
        }
      ]
    },
    {
      "name": "Die",
      "samplers": [
        {
          "input": 62,
          "output": 63,
          "interpolation": "LINEAR"
        },
        {
          "input": 62,
          "output": 64,
          "interpolation": "LINEAR"
        },
        {
          "input": 62,
          "output": 65,
          "interpolation": "LINEAR"
        },
        {
          "input": 62,
          "output": 66,
          "interpolation": "LINEAR"
        },
        {
          "input": 62,
          "output": 67,
          "interpolation": "LINEAR"
        },
        {
          "input": 62,
          "output": 68,
          "interpolation": "LINEAR"
        },
        {
          "input": 62,
          "output": 69,
          "interpolation": "LINEAR"
        },
        {
          "input": 62,
          "output": 70,
          "interpolation": "LINEAR"
        }
      ],
      "channels": [
        {
          "sampler": 0,
          "target": {
            "node": 0,
            "path": "rotation"
          }
        },
        {
          "sampler": 1,
          "target": {
            "node": 1,
            "path": "rotation"
          }
        },
        {
          "sampler": 2,
          "target": {
            "node": 3,
            "path": "rotation"
          }
        },
        {
          "sampler": 3,
          "target": {
            "node": 9,
            "path": "rotation"
          }
        },
        {
          "sampler": 4,
          "target": {
            "node": 12,
            "path": "rotation"
          }
        },
        {
          "sampler": 5,
          "target": {
            "node": 15,
            "path": "rotation"
          }
        },
        {
          "sampler": 6,
          "target": {
            "node": 18,
            "path": "rotation"
          }
        },
        {
          "sampler": 7,
          "target": {
            "node": 6,
            "path": "rotation"
          }
        }
      ]
    }
  ],
  "accessors": [
    {
      "bufferView": 0,
      "componentType": 5126,
      "count": 576,
      "type": "VEC3",
      "min": [
        -0.15000000000000002,
        -0.555,
        -0.52
      ],
      "max": [
        0.15000000000000002,
        0.33,
        0.86
      ]
    },
    {
      "bufferView": 1,
      "componentType": 5126,
      "count": 576,
      "type": "VEC3"
    },
    {
      "bufferView": 2,
      "componentType": 5121,
      "count": 576,
      "type": "VEC4"
    },
    {
      "bufferView": 3,
      "componentType": 5126,
      "count": 576,
      "type": "VEC4"
    },
    {
      "bufferView": 4,
      "componentType": 5123,
      "count": 864,
      "type": "SCALAR"
    },
    {
      "bufferView": 5,
      "componentType": 5126,
      "count": 23,
      "type": "MAT4"
    },
    {
      "bufferView": 6,
      "componentType": 5126,
      "count": 3,
      "type": "SCALAR",
      "min": [
        0.0
      ],
      "max": [
        2.0
      ]
    },
    {
      "bufferView": 7,
      "componentType": 5126,
      "count": 3,
      "type": "VEC4"
    },
    {
      "bufferView": 8,
      "componentType": 5126,
      "count": 3,
      "type": "VEC4"
    },
    {
      "bufferView": 9,
      "componentType": 5126,
      "count": 3,
      "type": "VEC4"
    },
    {
      "bufferView": 10,
      "componentType": 5126,
      "count": 3,
      "type": "VEC4"
    },
    {
      "bufferView": 11,
      "componentType": 5126,
      "count": 3,
      "type": "VEC4"
    },
    {
      "bufferView": 12,
      "componentType": 5126,
      "count": 3,
      "type": "VEC4"
    },
    {
      "bufferView": 13,
      "componentType": 5126,
      "count": 3,
      "type": "VEC4"
    },
    {
      "bufferView": 14,
      "componentType": 5126,
      "count": 3,
      "type": "VEC4"
    },
    {
      "bufferView": 15,
      "componentType": 5126,
      "count": 5,
      "type": "SCALAR",
      "min": [
        0.0
      ],
      "max": [
        0.8
      ]
    },
    {
      "bufferView": 16,
      "componentType": 5126,
      "count": 5,
      "type": "VEC4"
    },
    {
      "bufferView": 17,
      "componentType": 5126,
      "count": 5,
      "type": "VEC4"
    },
    {
      "bufferView": 18,
      "componentType": 5126,
      "count": 5,
      "type": "VEC4"
    },
    {
      "bufferView": 19,
      "componentType": 5126,
      "count": 5,
      "type": "VEC4"
    },
    {
      "bufferView": 20,
      "componentType": 5126,
      "count": 5,
      "type": "VEC4"
    },
    {
      "bufferView": 21,
      "componentType": 5126,
      "count": 5,
      "type": "VEC4"
    },
    {
      "bufferView": 22,
      "componentType": 5126,
      "count": 5,
      "type": "VEC4"
    },
    {
      "bufferView": 23,
      "componentType": 5126,
      "count": 5,
      "type": "VEC4"
    },
    {
      "bufferView": 24,
      "componentType": 5126,
      "count": 5,
      "type": "VEC4"
    },
    {
      "bufferView": 25,
      "componentType": 5126,
      "count": 5,
      "type": "VEC4"
    },
    {
      "bufferView": 26,
      "componentType": 5126,
      "count": 5,
      "type": "VEC4"
    },
    {
      "bufferView": 27,
      "componentType": 5126,
      "count": 5,
      "type": "SCALAR",
      "min": [
        0.0
      ],
      "max": [
        0.44
      ]
    },
    {
      "bufferView": 28,
      "componentType": 5126,
      "count": 5,
      "type": "VEC4"
    },
    {
      "bufferView": 29,
      "componentType": 5126,
      "count": 5,
      "type": "VEC4"
    },
    {
      "bufferView": 30,
      "componentType": 5126,
      "count": 5,
      "type": "VEC4"
    },
    {
      "bufferView": 31,
      "componentType": 5126,
      "count": 5,
      "type": "VEC4"
    },
    {
      "bufferView": 32,
      "componentType": 5126,
      "count": 5,
      "type": "VEC4"
    },
    {
      "bufferView": 33,
      "componentType": 5126,
      "count": 5,
      "type": "VEC4"
    },
    {
      "bufferView": 34,
      "componentType": 5126,
      "count": 5,
      "type": "VEC4"
    },
    {
      "bufferView": 35,
      "componentType": 5126,
      "count": 5,
      "type": "VEC4"
    },
    {
      "bufferView": 36,
      "componentType": 5126,
      "count": 5,
      "type": "VEC4"
    },
    {
      "bufferView": 37,
      "componentType": 5126,
      "count": 5,
      "type": "VEC4"
    },
    {
      "bufferView": 38,
      "componentType": 5126,
      "count": 5,
      "type": "VEC4"
    },
    {
      "bufferView": 39,
      "componentType": 5126,
      "count": 5,
      "type": "VEC4"
    },
    {
      "bufferView": 40,
      "componentType": 5126,
      "count": 5,
      "type": "VEC4"
    },
    {
      "bufferView": 41,
      "componentType": 5126,
      "count": 5,
      "type": "SCALAR",
      "min": [
        0.0
      ],
      "max": [
        0.55
      ]
    },
    {
      "bufferView": 42,
      "componentType": 5126,
      "count": 5,
      "type": "VEC4"
    },
    {
      "bufferView": 43,
      "componentType": 5126,
      "count": 5,
      "type": "VEC4"
    },
    {
      "bufferView": 44,
      "componentType": 5126,
      "count": 5,
      "type": "VEC4"
    },
    {
      "bufferView": 45,
      "componentType": 5126,
      "count": 5,
      "type": "VEC4"
    },
    {
      "bufferView": 46,
      "componentType": 5126,
      "count": 5,
      "type": "VEC4"
    },
    {
      "bufferView": 47,
      "componentType": 5126,
      "count": 5,
      "type": "VEC4"
    },
    {
      "bufferView": 48,
      "componentType": 5126,
      "count": 5,
      "type": "VEC4"
    },
    {
      "bufferView": 49,
      "componentType": 5126,
      "count": 6,
      "type": "SCALAR",
      "min": [
        0.0
      ],
      "max": [
        0.95
      ]
    },
    {
      "bufferView": 50,
      "componentType": 5126,
      "count": 6,
      "type": "VEC4"
    },
    {
      "bufferView": 51,
      "componentType": 5126,
      "count": 6,
      "type": "VEC4"
    },
    {
      "bufferView": 52,
      "componentType": 5126,
      "count": 6,
      "type": "VEC4"
    },
    {
      "bufferView": 53,
      "componentType": 5126,
      "count": 6,
      "type": "VEC4"
    },
    {
      "bufferView": 54,
      "componentType": 5126,
      "count": 6,
      "type": "VEC4"
    },
    {
      "bufferView": 55,
      "componentType": 5126,
      "count": 6,
      "type": "VEC4"
    },
    {
      "bufferView": 56,
      "componentType": 5126,
      "count": 6,
      "type": "VEC4"
    },
    {
      "bufferView": 57,
      "componentType": 5126,
      "count": 6,
      "type": "VEC4"
    },
    {
      "bufferView": 58,
      "componentType": 5126,
      "count": 6,
      "type": "VEC4"
    },
    {
      "bufferView": 59,
      "componentType": 5126,
      "count": 6,
      "type": "VEC4"
    },
    {
      "bufferView": 60,
      "componentType": 5126,
      "count": 6,
      "type": "VEC4"
    },
    {
      "bufferView": 61,
      "componentType": 5126,
      "count": 6,
      "type": "VEC4"
    },
    {
      "bufferView": 62,
      "componentType": 5126,
      "count": 4,
      "type": "SCALAR",
      "min": [
        0.0
      ],
      "max": [
        1.15
      ]
    },
    {
      "bufferView": 63,
      "componentType": 5126,
      "count": 4,
      "type": "VEC4"
    },
    {
      "bufferView": 64,
      "componentType": 5126,
      "count": 4,
      "type": "VEC4"
    },
    {
      "bufferView": 65,
      "componentType": 5126,
      "count": 4,
      "type": "VEC4"
    },
    {
      "bufferView": 66,
      "componentType": 5126,
      "count": 4,
      "type": "VEC4"
    },
    {
      "bufferView": 67,
      "componentType": 5126,
      "count": 4,
      "type": "VEC4"
    },
    {
      "bufferView": 68,
      "componentType": 5126,
      "count": 4,
      "type": "VEC4"
    },
    {
      "bufferView": 69,
      "componentType": 5126,
      "count": 4,
      "type": "VEC4"
    },
    {
      "bufferView": 70,
      "componentType": 5126,
      "count": 4,
      "type": "VEC4"
    }
  ],
  "bufferViews": [
    {
      "buffer": 0,
      "byteOffset": 0,
      "byteLength": 6912,
      "target": 34962
    },
    {
      "buffer": 0,
      "byteOffset": 6912,
      "byteLength": 6912,
      "target": 34962
    },
    {
      "buffer": 0,
      "byteOffset": 13824,
      "byteLength": 2304,
      "target": 34962
    },
    {
      "buffer": 0,
      "byteOffset": 16128,
      "byteLength": 9216,
      "target": 34962
    },
    {
      "buffer": 0,
      "byteOffset": 25344,
      "byteLength": 1728,
      "target": 34963
    },
    {
      "buffer": 0,
      "byteOffset": 27072,
      "byteLength": 1472
    },
    {
      "buffer": 0,
      "byteOffset": 28544,
      "byteLength": 12
    },
    {
      "buffer": 0,
      "byteOffset": 28556,
      "byteLength": 48
    },
    {
      "buffer": 0,
      "byteOffset": 28604,
      "byteLength": 48
    },
    {
      "buffer": 0,
      "byteOffset": 28652,
      "byteLength": 48
    },
    {
      "buffer": 0,
      "byteOffset": 28700,
      "byteLength": 48
    },
    {
      "buffer": 0,
      "byteOffset": 28748,
      "byteLength": 48
    },
    {
      "buffer": 0,
      "byteOffset": 28796,
      "byteLength": 48
    },
    {
      "buffer": 0,
      "byteOffset": 28844,
      "byteLength": 48
    },
    {
      "buffer": 0,
      "byteOffset": 28892,
      "byteLength": 48
    },
    {
      "buffer": 0,
      "byteOffset": 28940,
      "byteLength": 20
    },
    {
      "buffer": 0,
      "byteOffset": 28960,
      "byteLength": 80
    },
    {
      "buffer": 0,
      "byteOffset": 29040,
      "byteLength": 80
    },
    {
      "buffer": 0,
      "byteOffset": 29120,
      "byteLength": 80
    },
    {
      "buffer": 0,
      "byteOffset": 29200,
      "byteLength": 80
    },
    {
      "buffer": 0,
      "byteOffset": 29280,
      "byteLength": 80
    },
    {
      "buffer": 0,
      "byteOffset": 29360,
      "byteLength": 80
    },
    {
      "buffer": 0,
      "byteOffset": 29440,
      "byteLength": 80
    },
    {
      "buffer": 0,
      "byteOffset": 29520,
      "byteLength": 80
    },
    {
      "buffer": 0,
      "byteOffset": 29600,
      "byteLength": 80
    },
    {
      "buffer": 0,
      "byteOffset": 29680,
      "byteLength": 80
    },
    {
      "buffer": 0,
      "byteOffset": 29760,
      "byteLength": 80
    },
    {
      "buffer": 0,
      "byteOffset": 29840,
      "byteLength": 20
    },
    {
      "buffer": 0,
      "byteOffset": 29860,
      "byteLength": 80
    },
    {
      "buffer": 0,
      "byteOffset": 29940,
      "byteLength": 80
    },
    {
      "buffer": 0,
      "byteOffset": 30020,
      "byteLength": 80
    },
    {
      "buffer": 0,
      "byteOffset": 30100,
      "byteLength": 80
    },
    {
      "buffer": 0,
      "byteOffset": 30180,
      "byteLength": 80
    },
    {
      "buffer": 0,
      "byteOffset": 30260,
      "byteLength": 80
    },
    {
      "buffer": 0,
      "byteOffset": 30340,
      "byteLength": 80
    },
    {
      "buffer": 0,
      "byteOffset": 30420,
      "byteLength": 80
    },
    {
      "buffer": 0,
      "byteOffset": 30500,
      "byteLength": 80
    },
    {
      "buffer": 0,
      "byteOffset": 30580,
      "byteLength": 80
    },
    {
      "buffer": 0,
      "byteOffset": 30660,
      "byteLength": 80
    },
    {
      "buffer": 0,
      "byteOffset": 30740,
      "byteLength": 80
    },
    {
      "buffer": 0,
      "byteOffset": 30820,
      "byteLength": 80
    },
    {
      "buffer": 0,
      "byteOffset": 30900,
      "byteLength": 20
    },
    {
      "buffer": 0,
      "byteOffset": 30920,
      "byteLength": 80
    },
    {
      "buffer": 0,
      "byteOffset": 31000,
      "byteLength": 80
    },
    {
      "buffer": 0,
      "byteOffset": 31080,
      "byteLength": 80
    },
    {
      "buffer": 0,
      "byteOffset": 31160,
      "byteLength": 80
    },
    {
      "buffer": 0,
      "byteOffset": 31240,
      "byteLength": 80
    },
    {
      "buffer": 0,
      "byteOffset": 31320,
      "byteLength": 80
    },
    {
      "buffer": 0,
      "byteOffset": 31400,
      "byteLength": 80
    },
    {
      "buffer": 0,
      "byteOffset": 31480,
      "byteLength": 24
    },
    {
      "buffer": 0,
      "byteOffset": 31504,
      "byteLength": 96
    },
    {
      "buffer": 0,
      "byteOffset": 31600,
      "byteLength": 96
    },
    {
      "buffer": 0,
      "byteOffset": 31696,
      "byteLength": 96
    },
    {
      "buffer": 0,
      "byteOffset": 31792,
      "byteLength": 96
    },
    {
      "buffer": 0,
      "byteOffset": 31888,
      "byteLength": 96
    },
    {
      "buffer": 0,
      "byteOffset": 31984,
      "byteLength": 96
    },
    {
      "buffer": 0,
      "byteOffset": 32080,
      "byteLength": 96
    },
    {
      "buffer": 0,
      "byteOffset": 32176,
      "byteLength": 96
    },
    {
      "buffer": 0,
      "byteOffset": 32272,
      "byteLength": 96
    },
    {
      "buffer": 0,
      "byteOffset": 32368,
      "byteLength": 96
    },
    {
      "buffer": 0,
      "byteOffset": 32464,
      "byteLength": 96
    },
    {
      "buffer": 0,
      "byteOffset": 32560,
      "byteLength": 96
    },
    {
      "buffer": 0,
      "byteOffset": 32656,
      "byteLength": 16
    },
    {
      "buffer": 0,
      "byteOffset": 32672,
      "byteLength": 64
    },
    {
      "buffer": 0,
      "byteOffset": 32736,
      "byteLength": 64
    },
    {
      "buffer": 0,
      "byteOffset": 32800,
      "byteLength": 64
    },
    {
      "buffer": 0,
      "byteOffset": 32864,
      "byteLength": 64
    },
    {
      "buffer": 0,
      "byteOffset": 32928,
      "byteLength": 64
    },
    {
      "buffer": 0,
      "byteOffset": 32992,
      "byteLength": 64
    },
    {
      "buffer": 0,
      "byteOffset": 33056,
      "byteLength": 64
    },
    {
      "buffer": 0,
      "byteOffset": 33120,
      "byteLength": 64
    }
  ],
  "buffers": [
    {
      "byteLength": 33184,
      "uri": "data:application/octet-stream;base64,"
    }
  ]
}